<?xml version="1.0" standalone="no"?>
<!DOCTYPE svg PUBLIC "-//W3C//DTD SVG 20010904//EN"
 "http://www.w3.org/TR/2001/REC-SVG-20010904/DTD/svg10.dtd">
<svg version="1.0" xmlns="http://www.w3.org/2000/svg"
 width="1024.000000pt" height="1024.000000pt" viewBox="0 0 1024.000000 1024.000000"
 preserveAspectRatio="xMidYMid meet">

<g transform="translate(0.000000,1024.000000) scale(0.100000,-0.100000)"
fill="#000000" stroke="none">
<path d="M6825 8394 c-33 -25 -130 -96 -215 -157 -170 -121 -362 -264 -455
-337 -101 -79 -250 -145 -440 -195 -49 -12 -91 -27 -93 -33 -2 -6 14 -16 35
-22 52 -17 113 -49 113 -59 0 -4 -34 -25 -76 -46 -81 -41 -120 -46 -157 -20
-30 21 -737 22 -788 1 -22 -9 -96 -15 -209 -19 -340 -11 -1145 -48 -1169 -53
-24 -5 -24 -6 15 -44 l39 -39 490 19 c270 11 534 21 589 22 l99 4 -48 -42 -48
-41 -186 -7 c-102 -4 -328 -14 -501 -21 -173 -8 -344 -15 -380 -15 l-65 0
-110 101 c-60 55 -119 107 -130 114 -17 11 -66 11 -290 0 -148 -7 -356 -16
-462 -20 -182 -7 -193 -9 -206 -29 -8 -12 -60 -107 -116 -212 l-101 -191 0
-211 c0 -116 4 -221 9 -234 13 -34 337 -364 485 -494 l128 -113 -1 -263 -2
-263 38 -36 c71 -68 220 -186 282 -224 33 -21 61 -40 61 -43 0 -3 -30 -2 -66
1 -56 6 -74 12 -118 45 -28 21 -85 63 -126 94 -41 30 -104 82 -140 114 -36 32
-85 74 -108 93 -24 18 -41 36 -38 39 3 3 13 -1 21 -8 15 -12 15 7 9 206 l-7
219 -91 100 c-49 55 -129 141 -176 190 -48 50 -95 102 -105 118 -9 15 -20 27
-24 27 -3 0 -4 -27 -3 -60 2 -33 1 -60 -3 -60 -4 0 -45 29 -90 65 -46 36 -86
65 -90 65 -3 0 14 -26 38 -58 24 -31 66 -88 93 -127 l49 -70 3 -321 3 -321
102 -58 c237 -135 521 -314 513 -323 -7 -7 -119 34 -191 71 -81 40 -352 198
-403 234 l-22 15 0 -475 0 -475 38 -34 c20 -18 47 -41 60 -49 22 -16 23 -19
20 -199 l-3 -182 27 -21 c15 -12 161 -94 325 -181 164 -88 338 -182 387 -209
136 -74 123 -73 258 -31 65 21 115 41 111 45 -5 4 -102 56 -218 115 -344 175
-684 353 -727 380 -36 23 -40 29 -34 56 3 17 6 57 6 90 l0 59 37 -26 c21 -14
43 -25 50 -25 9 0 13 -15 13 -43 l0 -43 323 -184 c400 -228 502 -288 747 -436
107 -64 317 -189 465 -277 247 -146 750 -445 1100 -655 77 -46 146 -81 155
-79 16 4 1557 925 1800 1075 80 49 210 127 290 172 732 413 664 371 670 412 4
30 13 42 59 72 30 20 55 35 57 34 1 -2 4 -41 5 -86 1 -61 -2 -87 -12 -97 -20
-19 -186 -108 -559 -298 -179 -91 -345 -177 -369 -190 -52 -30 -54 -28 94 -77
l100 -33 225 118 c187 98 420 223 590 318 76 42 73 32 65 228 l-7 176 61 58
61 58 0 464 c0 255 -2 463 -5 463 -3 0 -72 -41 -154 -90 -170 -103 -377 -205
-436 -215 l-40 -7 41 30 c49 36 196 124 424 255 l165 95 5 328 c3 181 9 336
14 344 6 8 37 53 70 100 73 102 98 140 92 140 -3 0 -43 -32 -90 -70 l-86 -70
0 67 -1 68 -64 -70 c-35 -38 -128 -142 -205 -230 l-142 -160 -1 -207 -2 -207
25 15 c14 8 5 -2 -19 -23 -24 -21 -92 -80 -150 -132 -58 -52 -148 -125 -199
-163 -83 -62 -98 -69 -152 -75 -33 -3 -60 -3 -60 0 0 4 28 25 63 48 71 49 132
97 235 187 l72 64 0 264 0 263 113 98 c173 151 494 474 511 513 11 27 13 80
12 230 l-2 196 -97 189 c-54 104 -109 203 -122 221 l-24 32 -143 6 c-79 3
-255 11 -393 16 -137 6 -278 13 -312 16 l-61 6 -102 -96 c-56 -53 -116 -107
-134 -121 l-32 -24 -240 17 c-131 9 -222 18 -200 20 34 3 36 5 20 17 -15 11
-16 15 -5 28 10 13 8 16 -16 21 -15 2 70 3 189 0 l217 -5 35 38 c20 21 36 40
36 43 0 3 -84 11 -187 18 -104 7 -226 16 -272 19 l-84 6 6 57 c8 74 70 278
108 357 51 106 188 280 363 461 33 34 56 62 51 62 -6 0 -37 -21 -70 -46z
m-319 -323 c-48 -49 -132 -104 -125 -82 5 14 150 130 164 131 5 0 -12 -22 -39
-49z m-136 -223 c-26 -72 -72 -235 -111 -401 l-33 -137 -46 52 c-25 29 -57 66
-71 82 l-27 30 -137 -104 c-75 -58 -205 -157 -288 -220 -84 -64 -221 -169
-304 -233 -84 -64 -157 -117 -163 -117 -6 0 -66 27 -135 60 l-125 60 -210
-137 c-473 -311 -541 -353 -562 -352 -18 1 -17 3 7 8 34 8 225 142 219 153 -2
4 0 9 6 13 6 4 2 14 -9 27 l-20 20 -83 -54 c-94 -62 -118 -76 -103 -61 13 12
290 203 455 313 69 46 159 111 200 145 41 33 81 64 87 68 14 9 139 -38 219
-82 l51 -27 154 128 c325 272 609 522 602 529 -4 4 -37 19 -73 34 -36 15 -69
30 -73 35 -5 4 15 13 45 20 136 32 458 150 513 187 33 22 36 15 15 -39z
m-3157 -519 c70 -66 127 -124 127 -129 0 -4 -21 -8 -47 -8 -103 -2 -810 -34
-841 -38 -30 -5 -36 -13 -97 -136 l-65 -132 0 -244 c0 -216 -2 -243 -15 -232
-18 15 -20 34 -2 24 10 -6 10 -4 0 7 -10 9 -13 71 -13 232 l0 219 70 145 c39
80 70 148 70 152 0 3 -31 48 -69 98 l-69 92 91 4 92 3 -102 2 c-57 1 -103 6
-103 11 0 11 99 18 505 35 176 7 325 14 331 15 5 0 67 -53 137 -120z m1773
114 c-214 -4 -182 7 -341 -117 -49 -38 -83 -62 -76 -52 8 10 62 53 120 97
l106 79 190 -2 190 -3 -189 -2z m243 4 c-2 -2 -11 -8 -20 -15 -12 -9 -16 -9
-16 1 0 7 9 14 20 14 11 1 18 1 16 0z m2361 -17 c377 -15 410 -19 410 -39 0
-10 -24 -44 -53 -77 -30 -32 -64 -72 -78 -87 -24 -29 -25 -29 -109 -22 -60 4
-81 3 -70 -4 8 -6 46 -11 83 -11 l68 0 72 -147 72 -146 0 -239 c0 -180 -3
-242 -12 -250 -10 -8 -13 39 -13 230 l0 240 -70 141 -70 141 -37 0 c-69 0
-697 31 -771 38 l-72 7 117 124 117 123 85 -6 c47 -3 196 -10 331 -16z m-2547
-37 c-40 -2 -106 -2 -145 0 -40 1 -8 3 72 3 80 0 112 -2 73 -3z m-228 -11
c-37 -33 -105 -83 -105 -79 0 6 100 87 108 87 3 0 2 -4 -3 -8z m-2659 -188
l-96 -187 0 -180 0 -180 92 -93 c50 -52 87 -94 82 -94 -6 0 -49 42 -97 94
l-87 94 0 181 0 181 81 162 c80 160 107 208 116 208 2 0 -39 -84 -91 -186z
m5958 -29 l84 -160 4 -182 4 -182 -105 -103 c-101 -98 -93 -87 33 46 l56 59 0
179 0 178 -49 88 c-65 118 -146 282 -126 257 9 -11 54 -92 99 -180z m-3434
112 c0 -2 -10 -12 -22 -23 l-23 -19 19 23 c18 21 26 27 26 19z m-182 -24 c-21
-2 -55 -2 -75 0 -21 2 -4 4 37 4 41 0 58 -2 38 -4z m-215 -10 c-40 -2 -106 -2
-145 0 -40 1 -8 3 72 3 80 0 112 -2 73 -3z m-285 -10 c-38 -2 -98 -2 -135 0
-38 2 -7 3 67 3 74 0 105 -1 68 -3z m-270 -10 c-38 -2 -98 -2 -135 0 -38 2 -7
3 67 3 74 0 105 -1 68 -3z m835 -20 c-7 -2 -21 -2 -30 0 -10 3 -4 5 12 5 17 0
24 -2 18 -5z m-185 -10 c-26 -2 -71 -2 -100 0 -29 2 -8 3 47 3 55 0 79 -1 53
-3z m-255 -10 c-29 -2 -77 -2 -105 0 -29 2 -6 3 52 3 58 0 81 -1 53 -3z m-235
-10 c-27 -2 -69 -2 -95 0 -27 2 -5 3 47 3 52 0 74 -1 48 -3z m-210 -10 c-21
-2 -57 -2 -80 0 -24 2 -7 4 37 4 44 0 63 -2 43 -4z m2920 -685 c-2 -488 -4
-559 -8 -328 -3 162 -6 281 -8 265 -1 -17 -8 -37 -14 -44 -11 -11 -10 -13 2
-7 8 4 5 -1 -8 -11 -16 -13 -19 -22 -12 -29 8 -8 7 -13 -5 -18 -12 -4 -16 -2
-12 6 2 7 1 22 -4 33 -4 11 -8 -40 -8 -119 -1 -77 -3 -137 -5 -135 -7 8 -16
327 -16 622 l0 297 -172 0 -173 0 -4 -810 -3 -810 168 0 c93 -1 192 -2 221 -4
51 -3 52 -3 56 28 4 29 4 28 5 -6 l2 -38 -270 0 -270 0 0 865 0 865 270 0 270
0 -2 -622z m-2488 587 c0 -11 -61 -35 -87 -34 -26 2 -25 2 7 9 28 6 19 8 -45
11 l-80 3 100 6 c55 3 101 7 103 8 1 1 2 0 2 -3z m3598 -20 c-3 -3 -9 2 -12
12 -6 14 -5 15 5 6 7 -7 10 -15 7 -18z m-3839 1 c-2 -2 -66 -6 -142 -10 -76
-3 -211 -11 -302 -17 -90 -6 -170 -9 -177 -7 -7 3 75 10 182 17 107 7 206 13
220 15 38 5 224 6 219 2z m109 -23 c-10 -2 -28 -2 -40 0 -13 2 -5 4 17 4 22 1
32 -1 23 -4z m-85 -10 c-13 -2 -33 -2 -45 0 -13 2 -3 4 22 4 25 0 35 -2 23 -4z
m-700 -10 c-13 -2 -35 -2 -50 0 -16 2 -5 4 22 4 28 0 40 -2 28 -4z m600 0
c-18 -2 -48 -2 -65 0 -18 2 -4 4 32 4 36 0 50 -2 33 -4z m-740 -10 c-13 -2
-33 -2 -45 0 -13 2 -3 4 22 4 25 0 35 -2 23 -4z m605 0 c-15 -2 -42 -2 -60 0
-18 2 -6 4 27 4 33 0 48 -2 33 -4z m3585 0 c-7 -2 -21 -2 -30 0 -10 3 -4 5 12
5 17 0 24 -2 18 -5z m-4340 -10 c-7 -2 -19 -2 -25 0 -7 3 -2 5 12 5 14 0 19
-2 13 -5z m625 0 c-15 -2 -42 -2 -60 0 -18 2 -6 4 27 4 33 0 48 -2 33 -4z
m-120 -10 c-16 -2 -40 -2 -55 0 -16 2 -3 4 27 4 30 0 43 -2 28 -4z m-131 -10
c-20 -2 -52 -2 -70 0 -17 2 0 4 38 4 39 0 53 -2 32 -4z m3860 1 c-3 -3 -12 -4
-19 -1 -8 3 -5 6 6 6 11 1 17 -2 13 -5z m-3994 -11 c-13 -2 -35 -2 -50 0 -16
2 -5 4 22 4 28 0 40 -2 28 -4z m4070 0 c-7 -2 -19 -2 -25 0 -7 3 -2 5 12 5 14
0 19 -2 13 -5z m70 -10 c-7 -2 -19 -2 -25 0 -7 3 -2 5 12 5 14 0 19 -2 13 -5z
m74 -9 c-3 -3 -12 -4 -19 -1 -8 3 -5 6 6 6 11 1 17 -2 13 -5z m243 -14 c6 -11
8 -20 6 -20 -3 0 -10 9 -16 20 -6 11 -8 20 -6 20 3 0 10 -9 16 -20z m174 4 c3
-8 2 -12 -4 -9 -6 3 -10 10 -10 16 0 14 7 11 14 -7z m26 -59 c0 -5 -5 -3 -10
5 -5 8 -10 20 -10 25 0 6 5 3 10 -5 5 -8 10 -19 10 -25z m-5163 -87 c-2 -13
-4 -3 -4 22 0 25 2 35 4 23 2 -13 2 -33 0 -45z m5160 -390 c-1 -84 -3 -16 -3
152 0 168 2 236 3 153 2 -84 2 -222 0 -305z m60 110 c-1 -62 -3 -12 -3 112 0
124 2 174 3 113 2 -62 2 -164 0 -225z m-1937 -418 l0 -710 -42 0 c-24 0 -143
-2 -265 -4 l-223 -3 0 713 0 714 265 0 265 0 0 -710z m-3463 323 c-1 -65 -3
-14 -3 112 0 127 2 180 3 118 2 -62 2 -165 0 -230z m-50 -36 c-1 -45 -3 -5 -3
88 0 94 2 130 3 82 2 -48 2 -125 0 -170z m1553 212 c-13 -6 -32 -15 -40 -22
-9 -7 -5 -2 8 11 13 12 31 22 40 21 11 0 9 -4 -8 -10z m147 -35 c-3 -3 -12 -4
-19 -1 -8 3 -5 6 6 6 11 1 17 -2 13 -5z m-879 -31 c-42 -2 -114 -2 -160 0 -46
1 -11 3 77 3 88 0 125 -2 83 -3z m3975 0 c-45 -2 -122 -2 -170 0 -48 1 -11 3
82 3 94 0 133 -2 88 -3z m-1980 -580 l-5 -568 -186 -3 c-210 -4 -492 6 -492
17 0 4 34 7 75 6 l75 -2 0 558 0 559 263 2 c144 2 265 2 268 1 3 -1 4 -258 2
-570z m-1108 516 c14 -6 9 -7 -15 -3 -19 4 -44 11 -55 15 -14 6 -9 7 15 3 19
-4 44 -11 55 -15z m-1454 -196 c13 -16 12 -17 -3 -4 -10 7 -18 15 -18 17 0 8
8 3 21 -13z m55 -55 l29 -33 -32 29 c-31 28 -38 36 -30 36 2 0 16 -15 33 -32z
m4824 28 c0 -2 -8 -10 -17 -17 -16 -13 -17 -12 -4 4 13 16 21 21 21 13z m30 1
c0 -1 -22 -25 -50 -52 -27 -27 -50 -46 -50 -43 0 6 92 98 98 98 1 0 2 -1 2 -3z
m-3050 -446 l0 -419 -617 4 c-339 3 -617 6 -617 7 -1 1 0 111 2 245 l3 242
269 0 270 0 0 -234 0 -234 76 -4 c47 -2 78 1 81 7 2 6 2 189 1 408 l-3 397
268 0 267 0 0 -419z m2957 391 l-27 -28 -2 -230 -3 -229 -2 229 -3 230 27 28
c15 15 29 28 32 28 2 0 -7 -13 -22 -28z m-4692 -2 c10 -11 16 -20 13 -20 -3 0
-13 9 -23 20 -10 11 -16 20 -13 20 3 0 13 -9 23 -20z m-8 -62 c-3 -7 -5 -2 -5
12 0 14 2 19 5 13 2 -7 2 -19 0 -25z m30 -371 c-1 -73 -3 -10 -3 138 0 149 2
208 3 132 2 -76 2 -198 0 -270z m-30 156 c-2 -37 -3 -9 -3 62 0 72 1 102 3 68
2 -34 2 -93 0 -130z m4690 85 c-3 -7 -5 -2 -5 12 0 14 2 19 5 13 2 -7 2 -19 0
-25z m0 -150 c-2 -18 -4 -4 -4 32 0 36 2 50 4 33 2 -18 2 -48 0 -65z m0 -75
c-3 -10 -5 -4 -5 12 0 17 2 24 5 18 2 -7 2 -21 0 -30z m-20 -140 c-2 -16 -4
-5 -4 22 0 28 2 40 4 28 2 -13 2 -35 0 -50z m542 -130 c3 -2 -8 -16 -24 -31
l-29 -27 23 26 c29 35 8 44 -34 16 l-30 -21 24 27 c22 25 50 29 70 10z m-5647
-29 c46 -39 74 -66 48 -47 -62 43 -110 83 -102 83 6 0 30 -16 54 -36z m-12
-30 c0 -2 -9 0 -20 6 -11 6 -20 13 -20 16 0 2 9 0 20 -6 11 -6 20 -13 20 -16z
m5554 11 c-4 -8 -11 -15 -16 -15 -6 0 -5 6 2 15 7 8 14 15 16 15 2 0 1 -7 -2
-15z m-5316 -418 c45 -27 82 -51 82 -53 0 -6 -55 20 -61 30 -4 5 -12 5 -19 1
-9 -5 -11 -4 -6 3 4 7 -9 19 -33 32 -46 23 -55 25 -45 9 4 -8 1 -8 -12 -2
-140 68 -312 158 -310 161 2 2 72 -31 156 -73 84 -42 154 -74 157 -72 5 5
-322 177 -337 177 -5 0 -10 5 -10 11 0 12 312 -147 438 -224z m5562 -82 l0
-293 -27 -18 c-16 -9 -88 -62 -161 -116 -73 -54 -137 -96 -142 -93 -15 9 0 27
17 21 8 -3 12 -2 9 3 -8 12 62 64 74 56 6 -4 9 -2 8 4 -3 10 166 131 184 131
6 0 8 107 6 280 -2 153 0 276 4 272 4 -4 9 -127 11 -272 l2 -265 3 288 c2 242
0 288 -12 293 -8 3 -43 -10 -78 -29 -35 -19 -112 -60 -171 -92 -60 -31 -106
-59 -103 -62 3 -3 75 32 161 77 86 45 158 80 161 78 2 -3 -85 -50 -195 -106
-183 -94 -279 -137 -287 -129 -5 5 181 111 356 203 112 59 158 79 168 72 9 -8
12 -81 12 -303z m-5993 263 c-3 -8 -6 -5 -6 6 -1 11 2 17 5 13 3 -3 4 -12 1
-19z m3 -303 l6 250 1 -250 c1 -137 4 -251 8 -252 3 -1 34 -24 68 -51 34 -27
110 -81 169 -122 59 -40 105 -76 103 -81 -3 -4 0 -11 6 -15 8 -5 9 -3 4 6 -12
19 -6 15 205 -125 l195 -130 200 -6 200 -6 -200 1 -200 1 -55 36 c-118 77
-172 110 -177 106 -2 -3 42 -38 99 -78 l103 -74 225 -5 225 -6 -218 -2 c-150
-1 -225 2 -240 10 -21 11 -150 102 -312 221 -44 32 -80 62 -80 67 0 4 -4 12
-9 17 -5 5 -6 3 -2 -4 12 -22 -3 -15 -59 28 -30 23 -52 46 -49 51 3 5 -1 8 -9
6 -9 -2 -63 33 -121 77 l-105 80 2 270 2 270 5 -270 5 -270 5 250z m409 109
c14 -12 -19 -1 -35 12 -18 14 -18 14 6 3 14 -6 27 -13 29 -15z m5336 4 c-87
-45 -136 -81 -125 -92 7 -7 32 0 85 27 41 20 75 35 75 32 0 -3 -35 -22 -78
-44 -77 -39 -78 -39 -91 -19 -7 11 -11 22 -8 24 11 11 163 94 172 94 5 -1 -8
-10 -30 -22z m-5475 -24 c0 -2 -9 0 -20 6 -11 6 -20 13 -20 16 0 2 9 0 20 -6
11 -6 20 -13 20 -16z m2260 -59 l0 -85 -150 0 -150 0 0 -260 0 -260 -105 0
-105 0 0 260 0 260 -150 0 -150 0 0 85 0 85 405 0 405 0 0 -85z m659 -50 c41
-75 114 -206 164 -293 49 -86 102 -181 119 -209 l29 -53 -125 0 -126 0 -37 75
-37 75 -216 0 -216 0 -37 -75 -37 -75 -131 0 -131 0 20 33 c31 49 337 588 356
625 l17 32 157 0 157 -1 74 -134z m991 50 l0 -85 -150 0 -150 0 0 -260 0 -260
-100 0 -100 0 0 260 0 260 -150 0 -150 0 0 85 0 85 400 0 400 0 0 -85z m1620
70 c7 -9 8 -15 2 -15 -5 0 -12 7 -16 15 -3 8 -4 15 -2 15 2 0 9 -7 16 -15z
m-4255 -18 c49 -27 85 -93 85 -155 0 -36 -3 -43 -16 -38 -9 3 -56 6 -105 6
-79 0 -89 2 -89 18 0 38 -19 42 -186 42 -176 0 -194 -5 -194 -55 0 -49 13 -52
252 -57 197 -4 228 -7 268 -25 54 -24 77 -49 96 -100 42 -120 -16 -253 -125
-283 -29 -7 -134 -10 -325 -8 l-283 3 -36 28 c-46 35 -57 56 -66 123 l-8 54
109 0 c60 0 108 -4 108 -9 0 -5 7 -17 16 -25 13 -13 45 -16 193 -16 124 0 181
4 189 12 16 16 15 75 0 85 -7 4 -119 10 -248 13 -209 4 -239 7 -275 25 -53 27
-82 72 -90 143 -12 106 25 189 99 223 37 17 69 19 316 19 266 0 276 -1 315
-23z m3451 -3 c44 -32 63 -65 76 -126 7 -32 10 -59 7 -61 -2 -1 -52 -1 -111 1
-94 3 -108 6 -108 21 0 37 -20 41 -184 41 -173 0 -196 -7 -196 -56 0 -45 28
-51 265 -57 243 -5 271 -11 318 -66 72 -86 55 -250 -32 -308 -57 -38 -97 -43
-369 -43 -215 0 -269 3 -300 15 -54 23 -81 53 -97 109 -27 89 -30 86 95 86 90
0 110 -3 110 -15 0 -28 39 -35 209 -35 184 0 201 5 201 55 0 52 -14 55 -243
55 -117 0 -230 5 -251 10 -49 11 -85 37 -111 81 -25 44 -27 169 -3 214 20 38
65 81 98 94 15 6 136 9 312 8 272 -2 288 -3 314 -23z m-4636 -46 c0 -5 -13 1
-30 14 -16 12 -30 23 -30 25 0 2 14 -4 30 -14 17 -9 30 -21 30 -25z m-50 -14
c0 -2 -13 2 -30 11 -16 9 -30 18 -30 21 0 2 14 -2 30 -11 17 -9 30 -18 30 -21z
m40 -16 c0 -4 -4 -8 -9 -8 -6 0 -12 4 -15 8 -3 5 1 9 9 9 8 0 15 -4 15 -9z
m-23 -367 c12 -11 24 -17 29 -13 4 4 4 2 1 -5 -6 -10 161 -143 195 -156 7 -2
10 -7 7 -11 -7 -7 -234 158 -258 188 -19 23 1 20 26 -3z m5362 14 c-20 -19
-285 -212 -288 -209 -2 2 -2 5 0 7 126 92 189 141 184 145 -7 7 -172 -105
-177 -120 -3 -9 -6 -9 -11 -1 -5 7 25 32 75 66 141 92 168 108 178 102 5 -3
11 -1 15 5 3 5 11 10 17 10 6 0 9 -2 7 -5z m-5182 -124 c29 -20 52 -39 53 -43
0 -6 -148 96 -160 110 -7 8 44 -24 107 -67z m5147 -10 c4 -5 -92 -79 -211
-165 l-218 -156 -275 2 -275 3 275 5 276 5 111 80 c62 44 110 81 108 83 -1 2
-57 -31 -123 -72 -68 -43 -131 -75 -144 -75 -22 1 -22 2 2 8 32 8 56 23 262
159 94 61 173 112 175 112 2 0 1 -6 -3 -12 -4 -8 -3 -10 2 -5 5 5 10 13 10 18
3 17 4 19 13 19 6 0 12 -4 15 -9z m-786 -298 c-10 -2 -26 -2 -35 0 -10 3 -2 5
17 5 19 0 27 -2 18 -5z m95 0 c-13 -2 -33 -2 -45 0 -13 2 -3 4 22 4 25 0 35
-2 23 -4z m130 0 c-7 -2 -19 -2 -25 0 -7 3 -2 5 12 5 14 0 19 -2 13 -5z
m-1724 -64 c-46 -28 -152 -95 -235 -150 -83 -54 -155 -99 -161 -99 -6 0 -91
53 -189 118 -99 65 -200 131 -226 146 -27 15 -48 30 -48 32 0 2 212 4 472 4
l471 0 -84 -51z m-1074 -219 c50 -35 65 -49 145 -139 36 -40 117 -117 180
-170 120 -102 348 -281 357 -281 17 0 286 215 443 355 61 54 125 121 144 150
24 35 54 63 93 87 32 19 84 51 116 72 67 43 76 40 15 -5 -24 -17 -43 -35 -43
-40 0 -5 -20 -29 -44 -54 -24 -25 -39 -45 -34 -45 5 0 25 16 44 36 18 20 57
54 84 76 88 70 -296 -299 -405 -390 -57 -48 -114 -97 -127 -109 -13 -12 -23
-20 -23 -17 0 3 -20 -9 -45 -26 -25 -17 -45 -33 -45 -36 0 -3 20 9 44 26 25
16 47 27 49 23 3 -7 -89 -183 -176 -338 l-29 -50 36 41 c72 84 604 522 547
451 -26 -32 2 -17 72 41 85 68 107 85 107 78 0 -2 -51 -46 -112 -97 -277 -230
-612 -526 -675 -597 l-32 -37 -78 76 c-104 102 -321 294 -586 518 -119 101
-217 186 -217 188 0 5 120 -90 201 -159 61 -51 87 -64 49 -23 -52 55 0 18 183
-132 106 -87 245 -211 309 -277 113 -114 154 -149 86 -74 -18 19 -73 114 -121
209 -72 142 -95 179 -125 199 -20 14 -140 129 -268 255 -127 127 -251 247
-275 269 -39 34 -39 34 -4 7 49 -38 61 -21 14 20 -29 25 -23 23 36 -12 39 -23
88 -54 110 -69z m-795 -176 c0 -2 -9 0 -20 6 -11 6 -20 13 -20 16 0 2 9 0 20
-6 11 -6 20 -13 20 -16z m2975 8 c-17 -15 -105 -63 -105 -58 0 3 24 19 53 36
52 30 69 37 52 22z m-2400 -22 c10 -11 16 -20 13 -20 -3 0 -13 9 -23 20 -10
11 -16 20 -13 20 3 0 13 -9 23 -20z m300 0 c10 -11 16 -20 13 -20 -3 0 -13 9
-23 20 -10 11 -16 20 -13 20 3 0 13 -9 23 -20z m1975 -4 c0 -2 -7 -7 -16 -10
-8 -3 -12 -2 -9 4 6 10 25 14 25 6z m-855 -92 c-78 -74 -244 -207 -231 -185 4
6 42 38 84 70 42 32 109 89 147 125 39 36 72 65 75 65 3 0 -31 -34 -75 -75z
m365 73 c0 -2 -12 -14 -27 -28 l-28 -24 24 28 c23 25 31 32 31 24z m-2240 -33
c0 -2 -9 0 -20 6 -11 6 -20 13 -20 16 0 2 9 0 20 -6 11 -6 20 -13 20 -16z
m2650 11 c0 -2 -18 -14 -40 -25 -22 -11 -40 -18 -40 -15 0 2 17 13 38 24 42
23 42 23 42 16z m90 1 c0 -4 -116 -74 -160 -96 -50 -25 -9 3 72 51 87 51 88
51 88 45z m-2570 -51 c0 -3 -18 4 -40 15 -22 11 -40 23 -40 25 0 3 18 -4 40
-15 22 -11 40 -23 40 -25z m675 -5 c27 -27 47 -50 44 -50 -3 0 -27 23 -54 50
-27 28 -47 50 -44 50 3 0 27 -22 54 -50z m-775 4 c0 -2 -9 0 -20 6 -11 6 -20
13 -20 16 0 2 9 0 20 -6 11 -6 20 -13 20 -16z m50 -30 c0 -2 -9 0 -20 6 -11 6
-20 13 -20 16 0 2 9 0 20 -6 11 -6 20 -13 20 -16z m160 -29 c0 -3 -22 6 -50
20 -27 14 -50 28 -50 30 0 3 23 -6 50 -20 28 -14 50 -28 50 -30z m2240 40 c0
-2 -18 -14 -40 -25 -22 -11 -40 -18 -40 -15 0 2 17 13 38 24 42 23 42 23 42
16z m-1845 -25 c10 -11 16 -20 13 -20 -3 0 -13 9 -23 20 -10 11 -16 20 -13 20
3 0 13 -9 23 -20z m-465 -35 c0 -3 -18 4 -40 15 -22 11 -40 23 -40 25 0 3 18
-4 40 -15 22 -11 40 -23 40 -25z m2340 20 c0 -2 -10 -9 -22 -15 -22 -11 -22
-10 -4 4 21 17 26 19 26 11z m-2095 -98 c6 -6 -26 9 -70 33 -44 23 -84 47 -90
53 -5 5 26 -9 70 -33 44 -24 85 -47 90 -53z m-160 31 c263 -154 355 -210 355
-214 0 -3 -15 3 -32 14 -18 11 -112 66 -208 122 -96 57 -179 107 -185 113 -13
13 -4 9 70 -35z m2205 37 c0 -2 -10 -9 -22 -15 -22 -11 -22 -10 -4 4 21 17 26
19 26 11z m-50 -29 c0 -2 -91 -57 -202 -122 -233 -134 -225 -130 -215 -119 7
8 407 244 415 245 1 0 2 -2 2 -4z m-130 -11 c0 -2 -18 -14 -40 -25 -22 -11
-40 -18 -40 -15 0 2 17 13 38 24 42 23 42 23 42 16z m-1810 -61 c0 -2 -9 0
-20 6 -11 6 -20 13 -20 16 0 2 9 0 20 -6 11 -6 20 -13 20 -16z m1720 11 c0 -2
-13 -11 -30 -20 -38 -19 -40 -11 -2 9 31 17 32 18 32 11z m-1650 -51 c0 -2
-13 2 -30 11 -16 9 -30 18 -30 21 0 2 14 -2 30 -11 17 -9 30 -18 30 -21z
m1580 11 c0 -2 -13 -11 -30 -20 -38 -19 -40 -11 -2 9 31 17 32 18 32 11z
m-1530 -41 c0 -2 -9 0 -20 6 -11 6 -20 13 -20 16 0 2 9 0 20 -6 11 -6 20 -13
20 -16z m1435 -14 c-3 -5 -16 -15 -28 -21 -19 -9 -19 -8 3 10 28 23 34 26 25
11z m-55 -34 c0 -2 -8 -10 -17 -17 -16 -13 -17 -12 -4 4 13 16 21 21 21 13z
m-1270 -81 c0 -3 -18 4 -40 15 -22 11 -40 23 -40 25 0 3 18 -4 40 -15 22 -11
40 -23 40 -25z m1280 20 c0 -2 -10 -9 -22 -15 -22 -11 -22 -10 -4 4 21 17 26
19 26 11z m-1230 -51 c0 -2 -9 0 -20 6 -11 6 -20 13 -20 16 0 2 9 0 20 -6 11
-6 20 -13 20 -16z m1180 21 c0 -2 -13 -11 -30 -20 -38 -19 -40 -11 -2 9 31 17
32 18 32 11z m-1090 -71 c0 -2 -13 2 -30 11 -16 9 -30 18 -30 21 0 2 14 -2 30
-11 17 -9 30 -18 30 -21z m50 -30 c0 -2 -9 0 -20 6 -11 6 -20 13 -20 16 0 2 9
0 20 -6 11 -6 20 -13 20 -16z m120 -70 c0 -2 -9 0 -20 6 -11 6 -20 13 -20 16
0 2 9 0 20 -6 11 -6 20 -13 20 -16z m639 13 c-2 -2 -20 -14 -39 -26 l-35 -23
30 26 c17 14 34 26 39 26 5 0 7 -1 5 -3z"/>
<path d="M4386 6667 c-17 -13 -17 -14 0 -28 16 -12 17 -12 12 2 -4 9 -1 22 5
28 15 15 5 14 -17 -2z"/>
<path d="M4406 6605 c-11 -8 -15 -15 -9 -15 6 0 16 7 23 15 16 19 11 19 -14 0z"/>
<path d="M2450 7364 c0 -3 25 -33 55 -66 79 -85 79 -85 -60 -101 -16 -2 -1 -4
35 -4 59 -1 149 13 108 16 -10 0 -17 5 -15 10 1 5 -22 38 -52 75 -52 65 -71
84 -71 70z"/>
<path d="M2554 7334 c9 -11 13 -24 9 -29 -5 -4 -3 -5 3 -2 13 8 58 -38 50 -51
-7 -12 39 -55 53 -51 6 2 -21 38 -60 79 -39 41 -64 66 -55 54z m91 -104 c10
-11 16 -20 13 -20 -3 0 -13 9 -23 20 -10 11 -16 20 -13 20 3 0 13 -9 23 -20z"/>
<path d="M2320 7333 c0 -6 8 -17 18 -24 16 -13 16 -13 2 6 -8 11 -16 22 -17
24 -2 2 -3 0 -3 -6z"/>
<path d="M7827 7383 c18 -2 50 -2 70 0 21 2 7 4 -32 4 -38 0 -55 -2 -38 -4z"/>
<path d="M7707 7280 c-37 -44 -65 -80 -62 -80 8 0 13 6 88 93 32 37 55 67 50
67 -4 -1 -39 -37 -76 -80z"/>
<path d="M6083 5695 c0 -121 2 -210 4 -197 3 15 11 22 29 22 l24 0 -1 158 c-1
117 -3 146 -10 113 -4 -24 -14 -50 -21 -59 -11 -13 -14 1 -19 84 -3 67 -5 27
-6 -121z"/>
<path d="M5480 6213 c0 -269 -1 -531 -2 -583 0 -52 0 -128 1 -167 l1 -73 175
0 175 0 0 655 0 655 -175 0 -175 0 0 -487z"/>
<path d="M4790 5900 l0 -510 170 0 170 0 -2 503 c-1 394 -3 462 -8 314 -4
-103 -10 -190 -13 -193 -3 -3 -36 -16 -74 -29 -49 -17 -84 -23 -121 -20 l-52
4 -1 -32 c-1 -18 -5 -43 -9 -57 -6 -18 -8 -6 -10 45 -1 39 -5 79 -10 90 -5 11
-9 14 -9 8 -1 -7 -5 -13 -11 -13 -16 0 -13 387 3 393 7 3 5 6 -5 6 -17 1 -18
-30 -18 -509z"/>
<path d="M4080 5750 l0 -360 169 0 170 0 3 113 c2 61 2 223 0 360 l-3 247 -62
-2 -62 -2 58 -3 57 -4 0 -157 c0 -107 -3 -152 -10 -142 -6 9 -13 11 -17 5 -5
-5 -17 -10 -28 -10 -11 0 -31 -5 -45 -11 -14 -7 -52 -11 -85 -10 -33 1 -63 -2
-67 -8 -4 -6 -14 -4 -27 8 -18 17 -19 17 -23 -1 -3 -10 -8 57 -12 149 -5 91
-5 171 -2 177 4 6 2 11 -3 11 -8 0 -11 -113 -11 -360z"/>
<path d="M4173 6103 c9 -2 23 -2 30 0 6 3 -1 5 -18 5 -16 0 -22 -2 -12 -5z"/>
<path d="M4238 6103 c12 -2 30 -2 40 0 9 3 -1 5 -23 4 -22 0 -30 -2 -17 -4z"/>
<path d="M3380 5582 l0 -192 175 0 175 0 -2 193 -3 192 -2 -185 -3 -185 -160
3 c-132 2 -160 6 -160 17 0 12 15 15 65 15 37 0 65 -4 65 -10 0 -5 8 -10 18
-10 14 0 15 2 2 10 -10 7 9 10 63 10 50 0 76 -4 72 -10 -3 -5 -2 -10 3 -10 14
0 22 26 22 71 0 38 -13 52 -23 27 -3 -7 -6 -3 -6 9 -1 18 -6 22 -26 21 -15 -2
-25 -9 -25 -18 0 -13 -1 -13 -10 0 -6 10 -13 11 -17 5 -13 -17 -95 -34 -114
-24 -26 14 -49 0 -49 -29 0 -25 -1 -25 -15 -6 -14 19 -14 19 -16 -1 -4 -41
-15 74 -17 180 -5 179 -12 133 -12 -73z"/>
<path d="M3448 5423 c6 -2 18 -2 25 0 6 3 1 5 -13 5 -14 0 -19 -2 -12 -5z"/>
<path d="M3618 5423 c7 -3 16 -2 19 1 4 3 -2 6 -13 5 -11 0 -14 -3 -6 -6z"/>
<path d="M7698 5019 c-21 -11 -38 -22 -38 -24 0 -5 79 32 89 41 12 11 -18 1
-51 -17z"/>
<path d="M2360 4477 c0 -3 12 -12 26 -22 15 -9 23 -12 20 -6 -7 11 -46 35 -46
28z"/>
<path d="M2432 4424 c10 -10 20 -16 22 -13 3 3 -5 11 -17 18 -21 13 -21 12 -5
-5z"/>
<path d="M2531 4352 c79 -59 131 -94 135 -89 5 5 -140 107 -152 107 -4 0 4 -8
17 -18z"/>
<path d="M5026 4729 c-36 -66 -66 -121 -66 -122 0 -1 61 -2 135 -2 74 0 135 1
135 3 0 8 -123 233 -130 237 -4 3 -38 -49 -74 -116z"/>
<path d="M7750 4510 c-14 -11 -21 -20 -17 -20 5 0 20 9 34 20 14 11 22 20 17
20 -5 0 -20 -9 -34 -20z"/>
<path d="M7663 4327 c-40 -28 -71 -52 -69 -55 2 -2 39 22 81 52 43 31 74 56
69 55 -5 0 -42 -23 -81 -52z"/>
<path d="M4497 3742 c12 -9 31 -28 42 -42 11 -14 20 -22 21 -18 0 13 -62 78
-74 78 -6 0 -1 -8 11 -18z"/>
<path d="M4763 3423 c4 -6 48 -39 99 -73 51 -35 86 -56 78 -48 -22 23 -185
134 -177 121z"/>
<path d="M5729 3417 c-57 -45 -72 -58 -68 -61 2 -3 24 13 49 35 42 35 55 54
19 26z"/>
<path d="M4535 3382 c17 -15 39 -34 50 -42 19 -14 19 -14 5 5 -22 28 -63 64
-75 65 -5 0 4 -12 20 -28z"/>
<path d="M4980 3276 c0 -2 14 -14 30 -26 17 -12 30 -19 30 -16 0 2 -13 14 -30
26 -16 12 -30 19 -30 16z"/>
<path d="M5190 3229 c-22 -18 -22 -19 -3 -10 12 6 25 16 28 21 9 15 3 12 -25
-11z"/>
<path d="M5144 3197 c-2 -7 -3 -69 -2 -138 l3 -124 5 138 c3 75 4 137 2 137
-1 0 -5 -6 -8 -13z"/>
<path d="M6965 7840 c-21 -16 -35 -30 -31 -30 14 0 63 29 75 44 22 26 -4 18
-44 -14z"/>
<path d="M6740 7703 c-52 -30 -133 -93 -127 -99 12 -12 210 103 201 117 -9 15
-27 10 -74 -18z"/>
<path d="M7849 6133 c-13 -16 -12 -17 4 -4 9 7 17 15 17 17 0 8 -8 3 -21 -13z"/>
<path d="M2546 5946 c-13 -21 -16 -58 -16 -233 0 -197 1 -209 20 -221 20 -12
20 -10 18 135 l-2 148 -3 -132 c-2 -77 -8 -133 -13 -133 -6 0 -10 78 -10 203
0 170 3 206 16 225 9 13 14 25 11 28 -2 3 -12 -7 -21 -20z"/>
<path d="M7670 5949 c0 -5 4 -7 10 -4 5 3 12 -5 15 -17 10 -39 -1 -391 -13
-420 -11 -26 -10 -27 8 -16 19 12 20 25 20 228 0 155 -3 219 -12 228 -15 15
-28 15 -28 1z"/>
<path d="M2562 5805 c0 -16 2 -22 5 -12 2 9 2 23 0 30 -3 6 -5 -1 -5 -18z"/>
<path d="M2490 5460 c68 -64 252 -209 323 -254 16 -10 42 -16 60 -14 30 3 29
4 -33 37 -72 37 -162 99 -320 221 l-105 82 75 -72z"/>
<path d="M7705 5444 c-83 -74 -256 -205 -274 -209 -10 -2 -36 -13 -57 -24
l-39 -20 32 -1 c44 0 183 95 299 205 89 84 114 115 39 49z"/>
<path d="M2252 4262 c1 -40 3 -52 5 -30 4 37 4 37 24 17 11 -11 24 -17 29 -14
4 3 10 -1 13 -7 2 -7 3 2 2 19 -2 25 -11 39 -39 58 l-36 24 2 -67z"/>
<path d="M7965 4304 c-22 -18 -24 -22 -7 -14 19 9 22 8 23 -12 1 -13 2 -32 3
-43 0 -11 -3 -23 -7 -26 -5 -3 -1 -9 8 -12 14 -6 16 2 14 63 -1 39 -2 70 -3
70 -1 0 -14 -12 -31 -26z"/>
<path d="M7911 4264 c0 -11 3 -14 6 -6 3 7 2 16 -1 19 -3 4 -6 -2 -5 -13z"/>
<path d="M7910 4232 c0 -4 9 -8 19 -8 11 0 17 4 15 8 -3 4 -12 8 -20 8 -8 0
-14 -4 -14 -8z"/>
</g>
</svg>
